<mxfile host="app.diagrams.net" agent="Mozilla/5.0 (Windows NT 10.0; Win64; x64) AppleWebKit/537.36 (KHTML, like Gecko) Chrome/133.0.0.0 Safari/537.36 OPR/118.0.0.0" version="27.0.9">
  <diagram name="PÃ¡gina-1" id="Zyk2nybB_kdQl-kK-Ceh">
    <mxGraphModel grid="1" page="1" gridSize="10" guides="1" tooltips="1" connect="1" arrows="1" fold="1" pageScale="1" pageWidth="827" pageHeight="1169" math="0" shadow="0">
      <root>
        <mxCell id="0" />
        <mxCell id="1" parent="0" />
        <mxCell id="AsoXZ8o9mfOLHyw0_b6Q-75" style="edgeStyle=elbowEdgeStyle;rounded=0;orthogonalLoop=1;jettySize=auto;html=1;elbow=vertical;curved=0;" edge="1" parent="1" target="AsoXZ8o9mfOLHyw0_b6Q-78">
          <mxGeometry relative="1" as="geometry">
            <mxPoint x="-575" y="-190" as="sourcePoint" />
            <mxPoint x="-350" y="-190" as="targetPoint" />
          </mxGeometry>
        </mxCell>
        <mxCell id="AsoXZ8o9mfOLHyw0_b6Q-76" style="edgeStyle=elbowEdgeStyle;rounded=0;orthogonalLoop=1;jettySize=auto;html=1;elbow=vertical;curved=0;" edge="1" parent="1" target="AsoXZ8o9mfOLHyw0_b6Q-81">
          <mxGeometry relative="1" as="geometry">
            <mxPoint x="-385.3695652173915" y="-249.99782608695648" as="sourcePoint" />
            <mxPoint x="-110" y="-250" as="targetPoint" />
          </mxGeometry>
        </mxCell>
        <mxCell id="AsoXZ8o9mfOLHyw0_b6Q-77" value="JanelaSelecaoGrupoPersonagens" style="shape=umlLifeline;perimeter=lifelinePerimeter;whiteSpace=wrap;html=1;container=0;dropTarget=0;collapsible=0;recursiveResize=0;outlineConnect=0;portConstraint=eastwest;newEdgeStyle={&quot;edgeStyle&quot;:&quot;elbowEdgeStyle&quot;,&quot;elbow&quot;:&quot;vertical&quot;,&quot;curved&quot;:0,&quot;rounded&quot;:0};" vertex="1" parent="1">
          <mxGeometry x="-450" y="-360" width="130" height="245" as="geometry" />
        </mxCell>
        <mxCell id="AsoXZ8o9mfOLHyw0_b6Q-78" value="" style="html=1;points=[];perimeter=orthogonalPerimeter;outlineConnect=0;targetShapes=umlLifeline;portConstraint=eastwest;newEdgeStyle={&quot;edgeStyle&quot;:&quot;elbowEdgeStyle&quot;,&quot;elbow&quot;:&quot;vertical&quot;,&quot;curved&quot;:0,&quot;rounded&quot;:0};" vertex="1" parent="AsoXZ8o9mfOLHyw0_b6Q-77">
          <mxGeometry x="60" y="90" width="10" height="120" as="geometry" />
        </mxCell>
        <mxCell id="AsoXZ8o9mfOLHyw0_b6Q-79" value="" style="shape=umlDestroy;whiteSpace=wrap;html=1;strokeWidth=3;targetShapes=umlLifeline;" vertex="1" parent="AsoXZ8o9mfOLHyw0_b6Q-77">
          <mxGeometry x="50" y="215" width="30" height="30" as="geometry" />
        </mxCell>
        <mxCell id="AsoXZ8o9mfOLHyw0_b6Q-80" value=": GrupoController" style="shape=umlLifeline;perimeter=lifelinePerimeter;whiteSpace=wrap;html=1;container=0;dropTarget=0;collapsible=0;recursiveResize=0;outlineConnect=0;portConstraint=eastwest;newEdgeStyle={&quot;edgeStyle&quot;:&quot;elbowEdgeStyle&quot;,&quot;elbow&quot;:&quot;vertical&quot;,&quot;curved&quot;:0,&quot;rounded&quot;:0};" vertex="1" parent="1">
          <mxGeometry x="-260" y="-360" width="110" height="380" as="geometry" />
        </mxCell>
        <mxCell id="AsoXZ8o9mfOLHyw0_b6Q-81" value="" style="html=1;points=[];perimeter=orthogonalPerimeter;outlineConnect=0;targetShapes=umlLifeline;portConstraint=eastwest;newEdgeStyle={&quot;edgeStyle&quot;:&quot;elbowEdgeStyle&quot;,&quot;elbow&quot;:&quot;vertical&quot;,&quot;curved&quot;:0,&quot;rounded&quot;:0};" vertex="1" parent="AsoXZ8o9mfOLHyw0_b6Q-80">
          <mxGeometry x="50" y="110" width="10" height="100" as="geometry" />
        </mxCell>
        <mxCell id="AsoXZ8o9mfOLHyw0_b6Q-82" style="edgeStyle=orthogonalEdgeStyle;rounded=0;orthogonalLoop=1;jettySize=auto;html=1;curved=0;" edge="1" parent="1" source="AsoXZ8o9mfOLHyw0_b6Q-85">
          <mxGeometry relative="1" as="geometry">
            <mxPoint x="-570" y="-279.9999999999998" as="sourcePoint" />
            <mxPoint x="-390" y="-270" as="targetPoint" />
            <Array as="points">
              <mxPoint x="-540" y="-270" />
              <mxPoint x="-540" y="-270" />
            </Array>
          </mxGeometry>
        </mxCell>
        <mxCell id="AsoXZ8o9mfOLHyw0_b6Q-83" value="1: abrirListaGrupos()" style="text;whiteSpace=wrap;html=1;" vertex="1" parent="1">
          <mxGeometry x="-555" y="-290" width="140" height="40" as="geometry" />
        </mxCell>
        <mxCell id="AsoXZ8o9mfOLHyw0_b6Q-84" value="Menu" style="shape=umlLifeline;perimeter=lifelinePerimeter;whiteSpace=wrap;html=1;container=0;dropTarget=0;collapsible=0;recursiveResize=0;outlineConnect=0;portConstraint=eastwest;newEdgeStyle={&quot;edgeStyle&quot;:&quot;elbowEdgeStyle&quot;,&quot;elbow&quot;:&quot;vertical&quot;,&quot;curved&quot;:0,&quot;rounded&quot;:0};" vertex="1" parent="1">
          <mxGeometry x="-630" y="-360" width="100" height="380" as="geometry" />
        </mxCell>
        <mxCell id="AsoXZ8o9mfOLHyw0_b6Q-85" value="" style="html=1;points=[];perimeter=orthogonalPerimeter;outlineConnect=0;targetShapes=umlLifeline;portConstraint=eastwest;newEdgeStyle={&quot;edgeStyle&quot;:&quot;elbowEdgeStyle&quot;,&quot;elbow&quot;:&quot;vertical&quot;,&quot;curved&quot;:0,&quot;rounded&quot;:0};" vertex="1" parent="AsoXZ8o9mfOLHyw0_b6Q-84">
          <mxGeometry x="45" y="70" width="10" height="160" as="geometry" />
        </mxCell>
        <mxCell id="AsoXZ8o9mfOLHyw0_b6Q-86" value="2:listarGrupos()" style="text;whiteSpace=wrap;html=1;" vertex="1" parent="1">
          <mxGeometry x="-340" y="-270" width="120" height="40" as="geometry" />
        </mxCell>
        <mxCell id="AsoXZ8o9mfOLHyw0_b6Q-87" value="" style="html=1;verticalAlign=bottom;endArrow=open;dashed=1;endSize=8;curved=0;rounded=0;" edge="1" parent="1" source="AsoXZ8o9mfOLHyw0_b6Q-98">
          <mxGeometry relative="1" as="geometry">
            <mxPoint x="550" y="-210" as="sourcePoint" />
            <mxPoint x="-200" y="-210" as="targetPoint" />
          </mxGeometry>
        </mxCell>
        <mxCell id="AsoXZ8o9mfOLHyw0_b6Q-88" value="3 : clicaGrupo(grupo)" style="text;whiteSpace=wrap;html=1;" vertex="1" parent="1">
          <mxGeometry x="-555" y="-210" width="140" height="40" as="geometry" />
        </mxCell>
        <mxCell id="AsoXZ8o9mfOLHyw0_b6Q-89" style="edgeStyle=elbowEdgeStyle;rounded=0;orthogonalLoop=1;jettySize=auto;html=1;elbow=horizontal;curved=0;" edge="1" parent="1" target="AsoXZ8o9mfOLHyw0_b6Q-81">
          <mxGeometry relative="1" as="geometry">
            <mxPoint x="-380" y="-160" as="sourcePoint" />
            <mxPoint x="-115" y="-159.9957142857138" as="targetPoint" />
            <Array as="points">
              <mxPoint x="-360" y="-160" />
            </Array>
          </mxGeometry>
        </mxCell>
        <mxCell id="AsoXZ8o9mfOLHyw0_b6Q-90" value="4: grupoSelecionado(grupo)" style="text;whiteSpace=wrap;html=1;" vertex="1" parent="1">
          <mxGeometry x="-370" y="-180" width="180" height="30" as="geometry" />
        </mxCell>
        <mxCell id="AsoXZ8o9mfOLHyw0_b6Q-91" value="PersonagemController" style="shape=umlLifeline;perimeter=lifelinePerimeter;whiteSpace=wrap;html=1;container=0;dropTarget=0;collapsible=0;recursiveResize=0;outlineConnect=0;portConstraint=eastwest;newEdgeStyle={&quot;edgeStyle&quot;:&quot;elbowEdgeStyle&quot;,&quot;elbow&quot;:&quot;vertical&quot;,&quot;curved&quot;:0,&quot;rounded&quot;:0};" vertex="1" parent="1">
          <mxGeometry x="300" y="-360" width="130" height="380" as="geometry" />
        </mxCell>
        <mxCell id="AsoXZ8o9mfOLHyw0_b6Q-92" style="edgeStyle=elbowEdgeStyle;rounded=0;orthogonalLoop=1;jettySize=auto;html=1;elbow=horizontal;curved=0;" edge="1" parent="1" source="AsoXZ8o9mfOLHyw0_b6Q-81" target="AsoXZ8o9mfOLHyw0_b6Q-96">
          <mxGeometry relative="1" as="geometry">
            <mxPoint x="-190" y="-150" as="sourcePoint" />
            <mxPoint x="49.5" y="-149.99565217391296" as="targetPoint" />
            <Array as="points">
              <mxPoint x="-190" y="-150" />
            </Array>
          </mxGeometry>
        </mxCell>
        <mxCell id="AsoXZ8o9mfOLHyw0_b6Q-93" style="edgeStyle=elbowEdgeStyle;rounded=0;orthogonalLoop=1;jettySize=auto;html=1;elbow=vertical;curved=0;" edge="1" parent="1">
          <mxGeometry relative="1" as="geometry">
            <mxPoint x="-390" y="-150" as="sourcePoint" />
            <mxPoint x="-570" y="-149.71000000000004" as="targetPoint" />
          </mxGeometry>
        </mxCell>
        <mxCell id="AsoXZ8o9mfOLHyw0_b6Q-94" value="8 : fecharListaGrupos()" style="text;whiteSpace=wrap;html=1;" vertex="1" parent="1">
          <mxGeometry x="-555" y="-170" width="140" height="40" as="geometry" />
        </mxCell>
        <mxCell id="AsoXZ8o9mfOLHyw0_b6Q-95" value="umGrupo : Grupo&amp;lt;Personagens&amp;gt;" style="shape=umlLifeline;perimeter=lifelinePerimeter;whiteSpace=wrap;html=1;container=0;dropTarget=0;collapsible=0;recursiveResize=0;outlineConnect=0;portConstraint=eastwest;newEdgeStyle={&quot;edgeStyle&quot;:&quot;elbowEdgeStyle&quot;,&quot;elbow&quot;:&quot;vertical&quot;,&quot;curved&quot;:0,&quot;rounded&quot;:0};" vertex="1" parent="1">
          <mxGeometry x="-100" y="-360" width="130" height="380" as="geometry" />
        </mxCell>
        <mxCell id="AsoXZ8o9mfOLHyw0_b6Q-96" value="" style="html=1;points=[];perimeter=orthogonalPerimeter;outlineConnect=0;targetShapes=umlLifeline;portConstraint=eastwest;newEdgeStyle={&quot;edgeStyle&quot;:&quot;elbowEdgeStyle&quot;,&quot;elbow&quot;:&quot;vertical&quot;,&quot;curved&quot;:0,&quot;rounded&quot;:0};" vertex="1" parent="AsoXZ8o9mfOLHyw0_b6Q-95">
          <mxGeometry x="60" y="210" width="10" height="20" as="geometry" />
        </mxCell>
        <mxCell id="AsoXZ8o9mfOLHyw0_b6Q-97" style="edgeStyle=elbowEdgeStyle;rounded=0;orthogonalLoop=1;jettySize=auto;html=1;elbow=vertical;curved=0;" edge="1" parent="1" source="AsoXZ8o9mfOLHyw0_b6Q-115">
          <mxGeometry relative="1" as="geometry">
            <Array as="points">
              <mxPoint x="475.1899999999998" y="-120" />
              <mxPoint x="505.1899999999998" y="-160" />
            </Array>
            <mxPoint x="380.0003448275859" y="-120" as="sourcePoint" />
            <mxPoint x="759.8499999999999" y="-120" as="targetPoint" />
          </mxGeometry>
        </mxCell>
        <mxCell id="AsoXZ8o9mfOLHyw0_b6Q-98" value="umaBatalha:Batalha" style="shape=umlLifeline;perimeter=lifelinePerimeter;whiteSpace=wrap;html=1;container=0;dropTarget=0;collapsible=0;recursiveResize=0;outlineConnect=0;portConstraint=eastwest;newEdgeStyle={&quot;edgeStyle&quot;:&quot;elbowEdgeStyle&quot;,&quot;elbow&quot;:&quot;vertical&quot;,&quot;curved&quot;:0,&quot;rounded&quot;:0};" vertex="1" parent="1">
          <mxGeometry x="510" y="-360" width="130" height="380" as="geometry" />
        </mxCell>
        <mxCell id="AsoXZ8o9mfOLHyw0_b6Q-99" value="7 : adicionaPersonagem(batalha)" style="text;whiteSpace=wrap;html=1;" vertex="1" parent="1">
          <mxGeometry x="380" y="-100" width="210" height="20" as="geometry" />
        </mxCell>
        <mxCell id="AsoXZ8o9mfOLHyw0_b6Q-100" value="loop (atÃ© 4x)" style="shape=umlFrame;whiteSpace=wrap;html=1;pointerEvents=0;" vertex="1" parent="1">
          <mxGeometry x="-40" y="-190" width="820" height="130" as="geometry" />
        </mxCell>
        <mxCell id="AsoXZ8o9mfOLHyw0_b6Q-101" value="Diagrama de SequÃªncia - Selecionar Grupo de Personagens" style="text;strokeColor=none;fillColor=none;html=1;fontSize=24;fontStyle=1;verticalAlign=middle;align=center;" vertex="1" parent="1">
          <mxGeometry x="-650" y="-410" width="670" height="30" as="geometry" />
        </mxCell>
        <mxCell id="AsoXZ8o9mfOLHyw0_b6Q-102" value="" style="endArrow=none;dashed=1;html=1;dashPattern=1 3;strokeWidth=2;rounded=0;entryX=0.5;entryY=1;entryDx=0;entryDy=0;" edge="1" parent="1" target="AsoXZ8o9mfOLHyw0_b6Q-220">
          <mxGeometry width="50" height="50" relative="1" as="geometry">
            <mxPoint x="760" y="20" as="sourcePoint" />
            <mxPoint x="760" y="-300" as="targetPoint" />
          </mxGeometry>
        </mxCell>
        <mxCell id="AsoXZ8o9mfOLHyw0_b6Q-103" value="2:listarGrupos()" style="text;whiteSpace=wrap;html=1;" vertex="1" parent="1">
          <mxGeometry x="20" y="-265" width="120" height="30" as="geometry" />
        </mxCell>
        <mxCell id="AsoXZ8o9mfOLHyw0_b6Q-104" value="" style="html=1;verticalAlign=bottom;endArrow=open;dashed=1;endSize=8;curved=0;rounded=0;" edge="1" parent="1">
          <mxGeometry relative="1" as="geometry">
            <mxPoint x="-210" y="-200" as="sourcePoint" />
            <mxPoint x="-380" y="-200" as="targetPoint" />
          </mxGeometry>
        </mxCell>
        <mxCell id="AsoXZ8o9mfOLHyw0_b6Q-105" style="edgeStyle=elbowEdgeStyle;rounded=0;orthogonalLoop=1;jettySize=auto;html=1;elbow=vertical;curved=0;" edge="1" parent="1" source="AsoXZ8o9mfOLHyw0_b6Q-115" target="AsoXZ8o9mfOLHyw0_b6Q-98">
          <mxGeometry relative="1" as="geometry">
            <Array as="points">
              <mxPoint x="500" y="-80" />
              <mxPoint x="480" y="-50" />
            </Array>
          </mxGeometry>
        </mxCell>
        <mxCell id="AsoXZ8o9mfOLHyw0_b6Q-106" value="4: grupoSelecionado(grupo)" style="text;whiteSpace=wrap;html=1;" vertex="1" parent="1">
          <mxGeometry x="-200" y="-170" width="180" height="30" as="geometry" />
        </mxCell>
        <mxCell id="AsoXZ8o9mfOLHyw0_b6Q-107" value="5: alocarPersonagens(grupo)" style="text;whiteSpace=wrap;html=1;" vertex="1" parent="1">
          <mxGeometry x="-30" y="-160" width="180" height="30" as="geometry" />
        </mxCell>
        <mxCell id="AsoXZ8o9mfOLHyw0_b6Q-108" value="5: alocarPersonagens(grupo)" style="text;whiteSpace=wrap;html=1;" vertex="1" parent="1">
          <mxGeometry x="170" y="-150" width="180" height="30" as="geometry" />
        </mxCell>
        <mxCell id="AsoXZ8o9mfOLHyw0_b6Q-109" value="" style="html=1;verticalAlign=bottom;endArrow=open;dashed=1;endSize=8;curved=0;rounded=0;" edge="1" parent="1" target="AsoXZ8o9mfOLHyw0_b6Q-115">
          <mxGeometry relative="1" as="geometry">
            <mxPoint x="760" y="-110" as="sourcePoint" />
            <mxPoint x="380" y="-110" as="targetPoint" />
          </mxGeometry>
        </mxCell>
        <mxCell id="AsoXZ8o9mfOLHyw0_b6Q-110" value="umPersonagem : Personagem" style="shape=umlLifeline;perimeter=lifelinePerimeter;whiteSpace=wrap;html=1;container=0;dropTarget=0;collapsible=0;recursiveResize=0;outlineConnect=0;portConstraint=eastwest;newEdgeStyle={&quot;edgeStyle&quot;:&quot;elbowEdgeStyle&quot;,&quot;elbow&quot;:&quot;vertical&quot;,&quot;curved&quot;:0,&quot;rounded&quot;:0};" vertex="1" parent="1">
          <mxGeometry x="90" y="-360" width="140" height="380" as="geometry" />
        </mxCell>
        <mxCell id="AsoXZ8o9mfOLHyw0_b6Q-111" value="" style="html=1;points=[];perimeter=orthogonalPerimeter;outlineConnect=0;targetShapes=umlLifeline;portConstraint=eastwest;newEdgeStyle={&quot;edgeStyle&quot;:&quot;elbowEdgeStyle&quot;,&quot;elbow&quot;:&quot;vertical&quot;,&quot;curved&quot;:0,&quot;rounded&quot;:0};" vertex="1" parent="AsoXZ8o9mfOLHyw0_b6Q-110">
          <mxGeometry x="65" y="220" width="10" height="20" as="geometry" />
        </mxCell>
        <mxCell id="AsoXZ8o9mfOLHyw0_b6Q-112" style="edgeStyle=elbowEdgeStyle;rounded=0;orthogonalLoop=1;jettySize=auto;html=1;elbow=vertical;curved=0;" edge="1" parent="1" target="AsoXZ8o9mfOLHyw0_b6Q-111">
          <mxGeometry relative="1" as="geometry">
            <mxPoint x="-29.5" y="-135.41333333333216" as="sourcePoint" />
            <mxPoint x="150" y="-135" as="targetPoint" />
          </mxGeometry>
        </mxCell>
        <mxCell id="AsoXZ8o9mfOLHyw0_b6Q-113" value="6:buscarPersonagem(id)" style="text;whiteSpace=wrap;html=1;" vertex="1" parent="1">
          <mxGeometry x="400" y="-145" width="190" height="20" as="geometry" />
        </mxCell>
        <mxCell id="AsoXZ8o9mfOLHyw0_b6Q-114" value="" style="edgeStyle=elbowEdgeStyle;rounded=0;orthogonalLoop=1;jettySize=auto;html=1;elbow=vertical;curved=0;" edge="1" parent="1" source="AsoXZ8o9mfOLHyw0_b6Q-111" target="AsoXZ8o9mfOLHyw0_b6Q-115">
          <mxGeometry relative="1" as="geometry">
            <mxPoint x="165" y="-130" as="sourcePoint" />
            <mxPoint x="365" y="-130" as="targetPoint" />
            <Array as="points" />
          </mxGeometry>
        </mxCell>
        <mxCell id="AsoXZ8o9mfOLHyw0_b6Q-115" value="" style="html=1;points=[];perimeter=orthogonalPerimeter;outlineConnect=0;targetShapes=umlLifeline;portConstraint=eastwest;newEdgeStyle={&quot;edgeStyle&quot;:&quot;elbowEdgeStyle&quot;,&quot;elbow&quot;:&quot;vertical&quot;,&quot;curved&quot;:0,&quot;rounded&quot;:0};" vertex="1" parent="1">
          <mxGeometry x="360" y="-130" width="10" height="50" as="geometry" />
        </mxCell>
        <mxCell id="AsoXZ8o9mfOLHyw0_b6Q-116" style="edgeStyle=elbowEdgeStyle;rounded=0;orthogonalLoop=1;jettySize=auto;html=1;elbow=vertical;curved=0;" edge="1" parent="1" source="AsoXZ8o9mfOLHyw0_b6Q-81" target="AsoXZ8o9mfOLHyw0_b6Q-98">
          <mxGeometry relative="1" as="geometry">
            <mxPoint x="550" y="-240" as="targetPoint" />
            <Array as="points">
              <mxPoint x="290" y="-240" />
            </Array>
          </mxGeometry>
        </mxCell>
        <mxCell id="AsoXZ8o9mfOLHyw0_b6Q-141" value="Diagrama de SequÃªncia - Selecionar CenÃ¡rio" style="text;strokeColor=none;fillColor=none;html=1;fontSize=24;fontStyle=1;verticalAlign=middle;align=center;" vertex="1" parent="1">
          <mxGeometry x="-528" y="-937" width="478" height="30" as="geometry" />
        </mxCell>
        <mxCell id="AsoXZ8o9mfOLHyw0_b6Q-143" style="edgeStyle=elbowEdgeStyle;rounded=0;orthogonalLoop=1;jettySize=auto;html=1;elbow=vertical;curved=0;" edge="1" parent="1" target="AsoXZ8o9mfOLHyw0_b6Q-146">
          <mxGeometry relative="1" as="geometry">
            <mxPoint x="-585" y="320" as="sourcePoint" />
            <mxPoint x="-360" y="320" as="targetPoint" />
          </mxGeometry>
        </mxCell>
        <mxCell id="AsoXZ8o9mfOLHyw0_b6Q-144" style="edgeStyle=elbowEdgeStyle;rounded=0;orthogonalLoop=1;jettySize=auto;html=1;elbow=vertical;curved=0;" edge="1" parent="1" target="AsoXZ8o9mfOLHyw0_b6Q-149">
          <mxGeometry relative="1" as="geometry">
            <mxPoint x="-395.3695652173915" y="260.0021739130435" as="sourcePoint" />
            <mxPoint x="-120" y="260" as="targetPoint" />
          </mxGeometry>
        </mxCell>
        <mxCell id="AsoXZ8o9mfOLHyw0_b6Q-145" value="JanelaSelecaoGrupoInimigos" style="shape=umlLifeline;perimeter=lifelinePerimeter;whiteSpace=wrap;html=1;container=0;dropTarget=0;collapsible=0;recursiveResize=0;outlineConnect=0;portConstraint=eastwest;newEdgeStyle={&quot;edgeStyle&quot;:&quot;elbowEdgeStyle&quot;,&quot;elbow&quot;:&quot;vertical&quot;,&quot;curved&quot;:0,&quot;rounded&quot;:0};" vertex="1" parent="1">
          <mxGeometry x="-460" y="150" width="130" height="245" as="geometry" />
        </mxCell>
        <mxCell id="AsoXZ8o9mfOLHyw0_b6Q-146" value="" style="html=1;points=[];perimeter=orthogonalPerimeter;outlineConnect=0;targetShapes=umlLifeline;portConstraint=eastwest;newEdgeStyle={&quot;edgeStyle&quot;:&quot;elbowEdgeStyle&quot;,&quot;elbow&quot;:&quot;vertical&quot;,&quot;curved&quot;:0,&quot;rounded&quot;:0};" vertex="1" parent="AsoXZ8o9mfOLHyw0_b6Q-145">
          <mxGeometry x="60" y="90" width="10" height="120" as="geometry" />
        </mxCell>
        <mxCell id="AsoXZ8o9mfOLHyw0_b6Q-147" value="" style="shape=umlDestroy;whiteSpace=wrap;html=1;strokeWidth=3;targetShapes=umlLifeline;" vertex="1" parent="AsoXZ8o9mfOLHyw0_b6Q-145">
          <mxGeometry x="50" y="215" width="30" height="30" as="geometry" />
        </mxCell>
        <mxCell id="AsoXZ8o9mfOLHyw0_b6Q-148" value=": GrupoController" style="shape=umlLifeline;perimeter=lifelinePerimeter;whiteSpace=wrap;html=1;container=0;dropTarget=0;collapsible=0;recursiveResize=0;outlineConnect=0;portConstraint=eastwest;newEdgeStyle={&quot;edgeStyle&quot;:&quot;elbowEdgeStyle&quot;,&quot;elbow&quot;:&quot;vertical&quot;,&quot;curved&quot;:0,&quot;rounded&quot;:0};" vertex="1" parent="1">
          <mxGeometry x="-270" y="150" width="110" height="380" as="geometry" />
        </mxCell>
        <mxCell id="AsoXZ8o9mfOLHyw0_b6Q-149" value="" style="html=1;points=[];perimeter=orthogonalPerimeter;outlineConnect=0;targetShapes=umlLifeline;portConstraint=eastwest;newEdgeStyle={&quot;edgeStyle&quot;:&quot;elbowEdgeStyle&quot;,&quot;elbow&quot;:&quot;vertical&quot;,&quot;curved&quot;:0,&quot;rounded&quot;:0};" vertex="1" parent="AsoXZ8o9mfOLHyw0_b6Q-148">
          <mxGeometry x="50" y="110" width="10" height="100" as="geometry" />
        </mxCell>
        <mxCell id="AsoXZ8o9mfOLHyw0_b6Q-150" style="edgeStyle=orthogonalEdgeStyle;rounded=0;orthogonalLoop=1;jettySize=auto;html=1;curved=0;" edge="1" parent="1" source="AsoXZ8o9mfOLHyw0_b6Q-153">
          <mxGeometry relative="1" as="geometry">
            <mxPoint x="-580" y="230.00000000000023" as="sourcePoint" />
            <mxPoint x="-400" y="240" as="targetPoint" />
            <Array as="points">
              <mxPoint x="-550" y="240" />
              <mxPoint x="-550" y="240" />
            </Array>
          </mxGeometry>
        </mxCell>
        <mxCell id="AsoXZ8o9mfOLHyw0_b6Q-151" value="1: abrirListaGrupos()" style="text;whiteSpace=wrap;html=1;" vertex="1" parent="1">
          <mxGeometry x="-565" y="220" width="140" height="40" as="geometry" />
        </mxCell>
        <mxCell id="AsoXZ8o9mfOLHyw0_b6Q-152" value="Menu" style="shape=umlLifeline;perimeter=lifelinePerimeter;whiteSpace=wrap;html=1;container=0;dropTarget=0;collapsible=0;recursiveResize=0;outlineConnect=0;portConstraint=eastwest;newEdgeStyle={&quot;edgeStyle&quot;:&quot;elbowEdgeStyle&quot;,&quot;elbow&quot;:&quot;vertical&quot;,&quot;curved&quot;:0,&quot;rounded&quot;:0};" vertex="1" parent="1">
          <mxGeometry x="-640" y="150" width="100" height="380" as="geometry" />
        </mxCell>
        <mxCell id="AsoXZ8o9mfOLHyw0_b6Q-153" value="" style="html=1;points=[];perimeter=orthogonalPerimeter;outlineConnect=0;targetShapes=umlLifeline;portConstraint=eastwest;newEdgeStyle={&quot;edgeStyle&quot;:&quot;elbowEdgeStyle&quot;,&quot;elbow&quot;:&quot;vertical&quot;,&quot;curved&quot;:0,&quot;rounded&quot;:0};" vertex="1" parent="AsoXZ8o9mfOLHyw0_b6Q-152">
          <mxGeometry x="45" y="70" width="10" height="160" as="geometry" />
        </mxCell>
        <mxCell id="AsoXZ8o9mfOLHyw0_b6Q-154" value="2:listarGrupos()" style="text;whiteSpace=wrap;html=1;" vertex="1" parent="1">
          <mxGeometry x="-350" y="240" width="120" height="40" as="geometry" />
        </mxCell>
        <mxCell id="AsoXZ8o9mfOLHyw0_b6Q-155" value="" style="html=1;verticalAlign=bottom;endArrow=open;dashed=1;endSize=8;curved=0;rounded=0;" edge="1" parent="1" source="AsoXZ8o9mfOLHyw0_b6Q-166">
          <mxGeometry relative="1" as="geometry">
            <mxPoint x="540" y="300" as="sourcePoint" />
            <mxPoint x="-210" y="300" as="targetPoint" />
          </mxGeometry>
        </mxCell>
        <mxCell id="AsoXZ8o9mfOLHyw0_b6Q-156" value="3 : clicaGrupo(grupo)" style="text;whiteSpace=wrap;html=1;" vertex="1" parent="1">
          <mxGeometry x="-565" y="300" width="140" height="40" as="geometry" />
        </mxCell>
        <mxCell id="AsoXZ8o9mfOLHyw0_b6Q-157" style="edgeStyle=elbowEdgeStyle;rounded=0;orthogonalLoop=1;jettySize=auto;html=1;elbow=horizontal;curved=0;" edge="1" parent="1" target="AsoXZ8o9mfOLHyw0_b6Q-149">
          <mxGeometry relative="1" as="geometry">
            <mxPoint x="-390" y="350" as="sourcePoint" />
            <mxPoint x="-125" y="350.0042857142862" as="targetPoint" />
            <Array as="points">
              <mxPoint x="-370" y="350" />
            </Array>
          </mxGeometry>
        </mxCell>
        <mxCell id="AsoXZ8o9mfOLHyw0_b6Q-158" value="4: grupoSelecionado(grupo)" style="text;whiteSpace=wrap;html=1;" vertex="1" parent="1">
          <mxGeometry x="-380" y="330" width="180" height="30" as="geometry" />
        </mxCell>
        <mxCell id="AsoXZ8o9mfOLHyw0_b6Q-159" value="InimigoController" style="shape=umlLifeline;perimeter=lifelinePerimeter;whiteSpace=wrap;html=1;container=0;dropTarget=0;collapsible=0;recursiveResize=0;outlineConnect=0;portConstraint=eastwest;newEdgeStyle={&quot;edgeStyle&quot;:&quot;elbowEdgeStyle&quot;,&quot;elbow&quot;:&quot;vertical&quot;,&quot;curved&quot;:0,&quot;rounded&quot;:0};" vertex="1" parent="1">
          <mxGeometry x="290" y="150" width="130" height="380" as="geometry" />
        </mxCell>
        <mxCell id="AsoXZ8o9mfOLHyw0_b6Q-160" style="edgeStyle=elbowEdgeStyle;rounded=0;orthogonalLoop=1;jettySize=auto;html=1;elbow=horizontal;curved=0;" edge="1" parent="1" source="AsoXZ8o9mfOLHyw0_b6Q-149" target="AsoXZ8o9mfOLHyw0_b6Q-164">
          <mxGeometry relative="1" as="geometry">
            <mxPoint x="-200" y="360" as="sourcePoint" />
            <mxPoint x="39.5" y="360.00434782608704" as="targetPoint" />
            <Array as="points">
              <mxPoint x="-200" y="360" />
            </Array>
          </mxGeometry>
        </mxCell>
        <mxCell id="AsoXZ8o9mfOLHyw0_b6Q-161" style="edgeStyle=elbowEdgeStyle;rounded=0;orthogonalLoop=1;jettySize=auto;html=1;elbow=vertical;curved=0;" edge="1" parent="1">
          <mxGeometry relative="1" as="geometry">
            <mxPoint x="-400" y="360" as="sourcePoint" />
            <mxPoint x="-580" y="360.28999999999996" as="targetPoint" />
          </mxGeometry>
        </mxCell>
        <mxCell id="AsoXZ8o9mfOLHyw0_b6Q-162" value="8 : fecharListaGrupos()" style="text;whiteSpace=wrap;html=1;" vertex="1" parent="1">
          <mxGeometry x="-565" y="340" width="140" height="40" as="geometry" />
        </mxCell>
        <mxCell id="AsoXZ8o9mfOLHyw0_b6Q-163" value="umGrupo : Grupo&amp;lt;Inimigos&amp;gt;" style="shape=umlLifeline;perimeter=lifelinePerimeter;whiteSpace=wrap;html=1;container=0;dropTarget=0;collapsible=0;recursiveResize=0;outlineConnect=0;portConstraint=eastwest;newEdgeStyle={&quot;edgeStyle&quot;:&quot;elbowEdgeStyle&quot;,&quot;elbow&quot;:&quot;vertical&quot;,&quot;curved&quot;:0,&quot;rounded&quot;:0};" vertex="1" parent="1">
          <mxGeometry x="-110" y="150" width="130" height="380" as="geometry" />
        </mxCell>
        <mxCell id="AsoXZ8o9mfOLHyw0_b6Q-164" value="" style="html=1;points=[];perimeter=orthogonalPerimeter;outlineConnect=0;targetShapes=umlLifeline;portConstraint=eastwest;newEdgeStyle={&quot;edgeStyle&quot;:&quot;elbowEdgeStyle&quot;,&quot;elbow&quot;:&quot;vertical&quot;,&quot;curved&quot;:0,&quot;rounded&quot;:0};" vertex="1" parent="AsoXZ8o9mfOLHyw0_b6Q-163">
          <mxGeometry x="60" y="210" width="10" height="20" as="geometry" />
        </mxCell>
        <mxCell id="AsoXZ8o9mfOLHyw0_b6Q-165" style="edgeStyle=elbowEdgeStyle;rounded=0;orthogonalLoop=1;jettySize=auto;html=1;elbow=vertical;curved=0;" edge="1" parent="1" source="AsoXZ8o9mfOLHyw0_b6Q-183">
          <mxGeometry relative="1" as="geometry">
            <Array as="points">
              <mxPoint x="465.1899999999998" y="390" />
              <mxPoint x="495.1899999999998" y="350" />
            </Array>
            <mxPoint x="370.0003448275859" y="390" as="sourcePoint" />
            <mxPoint x="749.8499999999999" y="390" as="targetPoint" />
          </mxGeometry>
        </mxCell>
        <mxCell id="AsoXZ8o9mfOLHyw0_b6Q-166" value="umaBatalha:Batalha" style="shape=umlLifeline;perimeter=lifelinePerimeter;whiteSpace=wrap;html=1;container=0;dropTarget=0;collapsible=0;recursiveResize=0;outlineConnect=0;portConstraint=eastwest;newEdgeStyle={&quot;edgeStyle&quot;:&quot;elbowEdgeStyle&quot;,&quot;elbow&quot;:&quot;vertical&quot;,&quot;curved&quot;:0,&quot;rounded&quot;:0};" vertex="1" parent="1">
          <mxGeometry x="500" y="150" width="130" height="380" as="geometry" />
        </mxCell>
        <mxCell id="AsoXZ8o9mfOLHyw0_b6Q-167" value="7 : adicionaInimigo(batalha)" style="text;whiteSpace=wrap;html=1;" vertex="1" parent="1">
          <mxGeometry x="370" y="410" width="210" height="20" as="geometry" />
        </mxCell>
        <mxCell id="AsoXZ8o9mfOLHyw0_b6Q-168" value="loop (atÃ© 4x)" style="shape=umlFrame;whiteSpace=wrap;html=1;pointerEvents=0;" vertex="1" parent="1">
          <mxGeometry x="-50" y="320" width="820" height="130" as="geometry" />
        </mxCell>
        <mxCell id="AsoXZ8o9mfOLHyw0_b6Q-169" value="Diagrama de SequÃªncia - Selecionar Grupo de Inimigos" style="text;strokeColor=none;fillColor=none;html=1;fontSize=24;fontStyle=1;verticalAlign=middle;align=center;" vertex="1" parent="1">
          <mxGeometry x="-640" y="100" width="640" height="30" as="geometry" />
        </mxCell>
        <mxCell id="AsoXZ8o9mfOLHyw0_b6Q-170" value="" style="endArrow=none;dashed=1;html=1;dashPattern=1 3;strokeWidth=2;rounded=0;entryX=0.5;entryY=1;entryDx=0;entryDy=0;" edge="1" parent="1" target="AsoXZ8o9mfOLHyw0_b6Q-219">
          <mxGeometry width="50" height="50" relative="1" as="geometry">
            <mxPoint x="750" y="530" as="sourcePoint" />
            <mxPoint x="750" y="210" as="targetPoint" />
          </mxGeometry>
        </mxCell>
        <mxCell id="AsoXZ8o9mfOLHyw0_b6Q-171" value="2:listarGrupos()" style="text;whiteSpace=wrap;html=1;" vertex="1" parent="1">
          <mxGeometry x="10" y="245" width="120" height="30" as="geometry" />
        </mxCell>
        <mxCell id="AsoXZ8o9mfOLHyw0_b6Q-172" value="" style="html=1;verticalAlign=bottom;endArrow=open;dashed=1;endSize=8;curved=0;rounded=0;" edge="1" parent="1">
          <mxGeometry relative="1" as="geometry">
            <mxPoint x="-220" y="310" as="sourcePoint" />
            <mxPoint x="-390" y="310" as="targetPoint" />
          </mxGeometry>
        </mxCell>
        <mxCell id="AsoXZ8o9mfOLHyw0_b6Q-173" style="edgeStyle=elbowEdgeStyle;rounded=0;orthogonalLoop=1;jettySize=auto;html=1;elbow=vertical;curved=0;" edge="1" parent="1" source="AsoXZ8o9mfOLHyw0_b6Q-183" target="AsoXZ8o9mfOLHyw0_b6Q-166">
          <mxGeometry relative="1" as="geometry">
            <Array as="points">
              <mxPoint x="490" y="430" />
              <mxPoint x="470" y="460" />
            </Array>
          </mxGeometry>
        </mxCell>
        <mxCell id="AsoXZ8o9mfOLHyw0_b6Q-174" value="4: grupoSelecionado(grupo)" style="text;whiteSpace=wrap;html=1;" vertex="1" parent="1">
          <mxGeometry x="-210" y="340" width="180" height="30" as="geometry" />
        </mxCell>
        <mxCell id="AsoXZ8o9mfOLHyw0_b6Q-175" value="5: alocarInimigos(grupo)" style="text;whiteSpace=wrap;html=1;" vertex="1" parent="1">
          <mxGeometry x="-40" y="350" width="180" height="30" as="geometry" />
        </mxCell>
        <mxCell id="AsoXZ8o9mfOLHyw0_b6Q-176" value="5: alocarInimigos(grupo)" style="text;whiteSpace=wrap;html=1;" vertex="1" parent="1">
          <mxGeometry x="160" y="360" width="180" height="30" as="geometry" />
        </mxCell>
        <mxCell id="AsoXZ8o9mfOLHyw0_b6Q-177" value="" style="html=1;verticalAlign=bottom;endArrow=open;dashed=1;endSize=8;curved=0;rounded=0;" edge="1" parent="1" target="AsoXZ8o9mfOLHyw0_b6Q-183">
          <mxGeometry relative="1" as="geometry">
            <mxPoint x="750" y="400" as="sourcePoint" />
            <mxPoint x="370" y="400" as="targetPoint" />
          </mxGeometry>
        </mxCell>
        <mxCell id="AsoXZ8o9mfOLHyw0_b6Q-178" value="umInimigo : Inimigo" style="shape=umlLifeline;perimeter=lifelinePerimeter;whiteSpace=wrap;html=1;container=0;dropTarget=0;collapsible=0;recursiveResize=0;outlineConnect=0;portConstraint=eastwest;newEdgeStyle={&quot;edgeStyle&quot;:&quot;elbowEdgeStyle&quot;,&quot;elbow&quot;:&quot;vertical&quot;,&quot;curved&quot;:0,&quot;rounded&quot;:0};" vertex="1" parent="1">
          <mxGeometry x="80" y="150" width="140" height="380" as="geometry" />
        </mxCell>
        <mxCell id="AsoXZ8o9mfOLHyw0_b6Q-179" value="" style="html=1;points=[];perimeter=orthogonalPerimeter;outlineConnect=0;targetShapes=umlLifeline;portConstraint=eastwest;newEdgeStyle={&quot;edgeStyle&quot;:&quot;elbowEdgeStyle&quot;,&quot;elbow&quot;:&quot;vertical&quot;,&quot;curved&quot;:0,&quot;rounded&quot;:0};" vertex="1" parent="AsoXZ8o9mfOLHyw0_b6Q-178">
          <mxGeometry x="65" y="220" width="10" height="20" as="geometry" />
        </mxCell>
        <mxCell id="AsoXZ8o9mfOLHyw0_b6Q-180" style="edgeStyle=elbowEdgeStyle;rounded=0;orthogonalLoop=1;jettySize=auto;html=1;elbow=vertical;curved=0;" edge="1" parent="1" target="AsoXZ8o9mfOLHyw0_b6Q-179">
          <mxGeometry relative="1" as="geometry">
            <mxPoint x="-39.5" y="374.58666666666784" as="sourcePoint" />
            <mxPoint x="140" y="375" as="targetPoint" />
          </mxGeometry>
        </mxCell>
        <mxCell id="AsoXZ8o9mfOLHyw0_b6Q-181" value="6:buscarInimigo(id)" style="text;whiteSpace=wrap;html=1;" vertex="1" parent="1">
          <mxGeometry x="390" y="365" width="190" height="20" as="geometry" />
        </mxCell>
        <mxCell id="AsoXZ8o9mfOLHyw0_b6Q-182" value="" style="edgeStyle=elbowEdgeStyle;rounded=0;orthogonalLoop=1;jettySize=auto;html=1;elbow=vertical;curved=0;" edge="1" parent="1" source="AsoXZ8o9mfOLHyw0_b6Q-179" target="AsoXZ8o9mfOLHyw0_b6Q-183">
          <mxGeometry relative="1" as="geometry">
            <mxPoint x="155" y="380" as="sourcePoint" />
            <mxPoint x="355" y="380" as="targetPoint" />
            <Array as="points" />
          </mxGeometry>
        </mxCell>
        <mxCell id="AsoXZ8o9mfOLHyw0_b6Q-183" value="" style="html=1;points=[];perimeter=orthogonalPerimeter;outlineConnect=0;targetShapes=umlLifeline;portConstraint=eastwest;newEdgeStyle={&quot;edgeStyle&quot;:&quot;elbowEdgeStyle&quot;,&quot;elbow&quot;:&quot;vertical&quot;,&quot;curved&quot;:0,&quot;rounded&quot;:0};" vertex="1" parent="1">
          <mxGeometry x="350" y="380" width="10" height="50" as="geometry" />
        </mxCell>
        <mxCell id="AsoXZ8o9mfOLHyw0_b6Q-184" style="edgeStyle=elbowEdgeStyle;rounded=0;orthogonalLoop=1;jettySize=auto;html=1;elbow=vertical;curved=0;" edge="1" parent="1" source="AsoXZ8o9mfOLHyw0_b6Q-149" target="AsoXZ8o9mfOLHyw0_b6Q-166">
          <mxGeometry relative="1" as="geometry">
            <mxPoint x="540" y="270" as="targetPoint" />
            <Array as="points">
              <mxPoint x="280" y="270" />
            </Array>
          </mxGeometry>
        </mxCell>
        <mxCell id="AsoXZ8o9mfOLHyw0_b6Q-219" value=":Repository" style="html=1;whiteSpace=wrap;" vertex="1" parent="1">
          <mxGeometry x="697" y="150" width="110" height="40" as="geometry" />
        </mxCell>
        <mxCell id="AsoXZ8o9mfOLHyw0_b6Q-220" value=":Repository" style="html=1;whiteSpace=wrap;" vertex="1" parent="1">
          <mxGeometry x="704" y="-360" width="110" height="40" as="geometry" />
        </mxCell>
        <mxCell id="zXiaYHBTQ4ik_o6NXOTr-1" value="JanelaConfiguracaoBatalha" style="shape=umlLifeline;perimeter=lifelinePerimeter;whiteSpace=wrap;container=1;dropTarget=0;collapsible=0;recursiveResize=0;outlineConnect=0;portConstraint=eastwest;newEdgeStyle={&quot;edgeStyle&quot;:&quot;elbowEdgeStyle&quot;,&quot;elbow&quot;:&quot;vertical&quot;,&quot;curved&quot;:0,&quot;rounded&quot;:0};size=65;" vertex="1" parent="1">
          <mxGeometry x="-588" y="-890" width="211" height="464" as="geometry" />
        </mxCell>
        <mxCell id="zXiaYHBTQ4ik_o6NXOTr-2" value="BatalhaController" style="shape=umlLifeline;perimeter=lifelinePerimeter;whiteSpace=wrap;container=1;dropTarget=0;collapsible=0;recursiveResize=0;outlineConnect=0;portConstraint=eastwest;newEdgeStyle={&quot;edgeStyle&quot;:&quot;elbowEdgeStyle&quot;,&quot;elbow&quot;:&quot;vertical&quot;,&quot;curved&quot;:0,&quot;rounded&quot;:0};size=65;" vertex="1" parent="1">
          <mxGeometry x="-327" y="-890" width="150" height="464" as="geometry" />
        </mxCell>
        <mxCell id="zXiaYHBTQ4ik_o6NXOTr-3" value="" style="points=[];perimeter=orthogonalPerimeter;outlineConnect=0;targetShapes=umlLifeline;portConstraint=eastwest;newEdgeStyle={&quot;edgeStyle&quot;:&quot;elbowEdgeStyle&quot;,&quot;elbow&quot;:&quot;vertical&quot;,&quot;curved&quot;:0,&quot;rounded&quot;:0}" vertex="1" parent="zXiaYHBTQ4ik_o6NXOTr-2">
          <mxGeometry x="70" y="100" width="10" height="160" as="geometry" />
        </mxCell>
        <mxCell id="zXiaYHBTQ4ik_o6NXOTr-4" value="" style="points=[];perimeter=orthogonalPerimeter;outlineConnect=0;targetShapes=umlLifeline;portConstraint=eastwest;newEdgeStyle={&quot;edgeStyle&quot;:&quot;elbowEdgeStyle&quot;,&quot;elbow&quot;:&quot;vertical&quot;,&quot;curved&quot;:0,&quot;rounded&quot;:0}" vertex="1" parent="zXiaYHBTQ4ik_o6NXOTr-2">
          <mxGeometry x="70" y="280" width="10" height="140" as="geometry" />
        </mxCell>
        <mxCell id="zXiaYHBTQ4ik_o6NXOTr-5" value="JanelaSelecaoCenario" style="shape=umlLifeline;perimeter=lifelinePerimeter;whiteSpace=wrap;container=1;dropTarget=0;collapsible=0;recursiveResize=0;outlineConnect=0;portConstraint=eastwest;newEdgeStyle={&quot;edgeStyle&quot;:&quot;elbowEdgeStyle&quot;,&quot;elbow&quot;:&quot;vertical&quot;,&quot;curved&quot;:0,&quot;rounded&quot;:0};size=65;" vertex="1" parent="1">
          <mxGeometry x="-11" y="-890" width="173" height="464" as="geometry" />
        </mxCell>
        <mxCell id="zXiaYHBTQ4ik_o6NXOTr-6" value="" style="points=[];perimeter=orthogonalPerimeter;outlineConnect=0;targetShapes=umlLifeline;portConstraint=eastwest;newEdgeStyle={&quot;edgeStyle&quot;:&quot;elbowEdgeStyle&quot;,&quot;elbow&quot;:&quot;vertical&quot;,&quot;curved&quot;:0,&quot;rounded&quot;:0}" vertex="1" parent="zXiaYHBTQ4ik_o6NXOTr-5">
          <mxGeometry x="81" y="197" width="10" height="54" as="geometry" />
        </mxCell>
        <mxCell id="zXiaYHBTQ4ik_o6NXOTr-7" value="umaBatalha:Batalha" style="shape=umlLifeline;perimeter=lifelinePerimeter;whiteSpace=wrap;container=1;dropTarget=0;collapsible=0;recursiveResize=0;outlineConnect=0;portConstraint=eastwest;newEdgeStyle={&quot;edgeStyle&quot;:&quot;elbowEdgeStyle&quot;,&quot;elbow&quot;:&quot;vertical&quot;,&quot;curved&quot;:0,&quot;rounded&quot;:0};size=65;" vertex="1" parent="1">
          <mxGeometry x="212" y="-890" width="158" height="464" as="geometry" />
        </mxCell>
        <mxCell id="zXiaYHBTQ4ik_o6NXOTr-8" value="" style="points=[];perimeter=orthogonalPerimeter;outlineConnect=0;targetShapes=umlLifeline;portConstraint=eastwest;newEdgeStyle={&quot;edgeStyle&quot;:&quot;elbowEdgeStyle&quot;,&quot;elbow&quot;:&quot;vertical&quot;,&quot;curved&quot;:0,&quot;rounded&quot;:0}" vertex="1" parent="zXiaYHBTQ4ik_o6NXOTr-7">
          <mxGeometry x="74" y="310" width="10" height="62" as="geometry" />
        </mxCell>
        <mxCell id="zXiaYHBTQ4ik_o6NXOTr-9" value="Repository" style="shape=umlLifeline;perimeter=lifelinePerimeter;whiteSpace=wrap;container=1;dropTarget=0;collapsible=0;recursiveResize=0;outlineConnect=0;portConstraint=eastwest;newEdgeStyle={&quot;edgeStyle&quot;:&quot;elbowEdgeStyle&quot;,&quot;elbow&quot;:&quot;vertical&quot;,&quot;curved&quot;:0,&quot;rounded&quot;:0};size=65;" vertex="1" parent="1">
          <mxGeometry x="420" y="-890" width="150" height="464" as="geometry" />
        </mxCell>
        <mxCell id="zXiaYHBTQ4ik_o6NXOTr-10" value="" style="points=[];perimeter=orthogonalPerimeter;outlineConnect=0;targetShapes=umlLifeline;portConstraint=eastwest;newEdgeStyle={&quot;edgeStyle&quot;:&quot;elbowEdgeStyle&quot;,&quot;elbow&quot;:&quot;vertical&quot;,&quot;curved&quot;:0,&quot;rounded&quot;:0}" vertex="1" parent="zXiaYHBTQ4ik_o6NXOTr-9">
          <mxGeometry x="70" y="118" width="10" height="46" as="geometry" />
        </mxCell>
        <mxCell id="zXiaYHBTQ4ik_o6NXOTr-11" value="1: iniciarSelecaoCenario()" style="verticalAlign=bottom;edgeStyle=elbowEdgeStyle;elbow=vertical;curved=0;rounded=0;endArrow=block;" edge="1" parent="1" source="zXiaYHBTQ4ik_o6NXOTr-1" target="zXiaYHBTQ4ik_o6NXOTr-3">
          <mxGeometry relative="1" as="geometry">
            <Array as="points">
              <mxPoint x="-359" y="-788" />
            </Array>
          </mxGeometry>
        </mxCell>
        <mxCell id="zXiaYHBTQ4ik_o6NXOTr-12" value="2: getCenarios()" style="verticalAlign=bottom;edgeStyle=elbowEdgeStyle;elbow=vertical;curved=0;rounded=0;endArrow=block;" edge="1" parent="1" target="zXiaYHBTQ4ik_o6NXOTr-10">
          <mxGeometry relative="1" as="geometry">
            <Array as="points">
              <mxPoint x="132" y="-771" />
            </Array>
            <mxPoint x="-247" y="-771" as="sourcePoint" />
          </mxGeometry>
        </mxCell>
        <mxCell id="zXiaYHBTQ4ik_o6NXOTr-13" value="" style="verticalAlign=bottom;edgeStyle=elbowEdgeStyle;elbow=vertical;curved=0;rounded=0;dashed=1;dashPattern=2 3;endArrow=block;" edge="1" parent="1">
          <mxGeometry relative="1" as="geometry">
            <Array as="points">
              <mxPoint x="133" y="-732" />
            </Array>
            <mxPoint x="490" y="-732" as="sourcePoint" />
            <mxPoint x="-247" y="-732" as="targetPoint" />
          </mxGeometry>
        </mxCell>
        <mxCell id="zXiaYHBTQ4ik_o6NXOTr-14" value="3: setCenarios(listaCenarios)" style="verticalAlign=bottom;edgeStyle=elbowEdgeStyle;elbow=vertical;curved=0;rounded=0;endArrow=block;" edge="1" parent="1">
          <mxGeometry relative="1" as="geometry">
            <Array as="points">
              <mxPoint x="-78" y="-690" />
            </Array>
            <mxPoint x="-247" y="-690" as="sourcePoint" />
            <mxPoint x="70" y="-690" as="targetPoint" />
          </mxGeometry>
        </mxCell>
        <mxCell id="zXiaYHBTQ4ik_o6NXOTr-15" value="" style="verticalAlign=bottom;edgeStyle=elbowEdgeStyle;elbow=vertical;curved=0;rounded=0;dashed=1;dashPattern=2 3;endArrow=block;" edge="1" parent="1">
          <mxGeometry relative="1" as="geometry">
            <Array as="points">
              <mxPoint x="-77" y="-656" />
            </Array>
            <mxPoint x="70" y="-656" as="sourcePoint" />
            <mxPoint x="-247" y="-656" as="targetPoint" />
          </mxGeometry>
        </mxCell>
        <mxCell id="zXiaYHBTQ4ik_o6NXOTr-16" value="4: setCenarioSelecionado(pathCenario)" style="verticalAlign=bottom;edgeStyle=elbowEdgeStyle;elbow=vertical;curved=0;rounded=0;endArrow=block;" edge="1" parent="1" source="zXiaYHBTQ4ik_o6NXOTr-5" target="zXiaYHBTQ4ik_o6NXOTr-4">
          <mxGeometry relative="1" as="geometry">
            <Array as="points">
              <mxPoint x="-55" y="-600" />
            </Array>
            <mxPoint x="70" y="-600" as="sourcePoint" />
            <mxPoint x="-230" y="-595" as="targetPoint" />
          </mxGeometry>
        </mxCell>
        <mxCell id="zXiaYHBTQ4ik_o6NXOTr-17" value="5: setCenario(pathCenario)" style="verticalAlign=bottom;edgeStyle=elbowEdgeStyle;elbow=vertical;curved=0;rounded=0;endArrow=block;" edge="1" parent="1" target="zXiaYHBTQ4ik_o6NXOTr-8">
          <mxGeometry relative="1" as="geometry">
            <Array as="points">
              <mxPoint x="30" y="-575" />
            </Array>
            <mxPoint x="-247" y="-575" as="sourcePoint" />
          </mxGeometry>
        </mxCell>
        <mxCell id="zXiaYHBTQ4ik_o6NXOTr-18" value="" style="verticalAlign=bottom;edgeStyle=elbowEdgeStyle;elbow=vertical;curved=0;rounded=0;dashed=1;dashPattern=2 3;endArrow=block;" edge="1" parent="1">
          <mxGeometry relative="1" as="geometry">
            <Array as="points">
              <mxPoint x="31" y="-537" />
            </Array>
            <mxPoint x="286" y="-537" as="sourcePoint" />
            <mxPoint x="-247" y="-537" as="targetPoint" />
          </mxGeometry>
        </mxCell>
        <mxCell id="zXiaYHBTQ4ik_o6NXOTr-19" value="" style="verticalAlign=bottom;edgeStyle=elbowEdgeStyle;elbow=vertical;curved=0;rounded=0;dashed=1;dashPattern=2 3;endArrow=block;" edge="1" parent="1">
          <mxGeometry relative="1" as="geometry">
            <Array as="points">
              <mxPoint x="-78" y="-493" />
            </Array>
            <mxPoint x="-247" y="-493" as="sourcePoint" />
            <mxPoint x="75.00000000000045" y="-493" as="targetPoint" />
          </mxGeometry>
        </mxCell>
      </root>
    </mxGraphModel>
  </diagram>
</mxfile>
